<svg xmlns="http://www.w3.org/2000/svg" width="461" height="461"><rect x="0" y="0" width="100%" height="100%" fill="rgb(60,103,147)"></rect><rect x="0" y="10" width="100%" height="13" opacity="0.08933333333333333" fill="#ddd"></rect><rect x="0" y="33" width="100%" height="13" opacity="0.08933333333333333" fill="#ddd"></rect><rect x="0" y="63" width="100%" height="20" opacity="0.15" fill="#222"></rect><rect x="0" y="102" width="100%" height="7" opacity="0.03733333333333333" fill="#ddd"></rect><rect x="0" y="122" width="100%" height="17" opacity="0.12400000000000001" fill="#ddd"></rect><rect x="0" y="159" width="100%" height="14" opacity="0.098" fill="#222"></rect><rect x="0" y="191" width="100%" height="5" opacity="0.02" fill="#ddd"></rect><rect x="0" y="207" width="100%" height="15" opacity="0.10666666666666667" fill="#ddd"></rect><rect x="0" y="237" width="100%" height="5" opacity="0.02" fill="#ddd"></rect><rect x="0" y="259" width="100%" height="17" opacity="0.12400000000000001" fill="#ddd"></rect><rect x="0" y="288" width="100%" height="20" opacity="0.15" fill="#222"></rect><rect x="0" y="315" width="100%" height="10" opacity="0.06333333333333334" fill="#222"></rect><rect x="0" y="345" width="100%" height="7" opacity="0.03733333333333333" fill="#ddd"></rect><rect x="0" y="359" width="100%" height="10" opacity="0.06333333333333334" fill="#222"></rect><rect x="0" y="378" width="100%" height="17" opacity="0.12400000000000001" fill="#ddd"></rect><rect x="0" y="404" width="100%" height="13" opacity="0.08933333333333333" fill="#ddd"></rect><rect x="0" y="427" width="100%" height="12" opacity="0.08066666666666666" fill="#222"></rect><rect x="0" y="453" width="100%" height="8" opacity="0.046" fill="#222"></rect><rect x="10" y="0" width="13" height="100%" opacity="0.08933333333333333" fill="#ddd"></rect><rect x="33" y="0" width="13" height="100%" opacity="0.08933333333333333" fill="#ddd"></rect><rect x="63" y="0" width="20" height="100%" opacity="0.15" fill="#222"></rect><rect x="102" y="0" width="7" height="100%" opacity="0.03733333333333333" fill="#ddd"></rect><rect x="122" y="0" width="17" height="100%" opacity="0.12400000000000001" fill="#ddd"></rect><rect x="159" y="0" width="14" height="100%" opacity="0.098" fill="#222"></rect><rect x="191" y="0" width="5" height="100%" opacity="0.02" fill="#ddd"></rect><rect x="207" y="0" width="15" height="100%" opacity="0.10666666666666667" fill="#ddd"></rect><rect x="237" y="0" width="5" height="100%" opacity="0.02" fill="#ddd"></rect><rect x="259" y="0" width="17" height="100%" opacity="0.12400000000000001" fill="#ddd"></rect><rect x="288" y="0" width="20" height="100%" opacity="0.15" fill="#222"></rect><rect x="315" y="0" width="10" height="100%" opacity="0.06333333333333334" fill="#222"></rect><rect x="345" y="0" width="7" height="100%" opacity="0.03733333333333333" fill="#ddd"></rect><rect x="359" y="0" width="10" height="100%" opacity="0.06333333333333334" fill="#222"></rect><rect x="378" y="0" width="17" height="100%" opacity="0.12400000000000001" fill="#ddd"></rect><rect x="404" y="0" width="13" height="100%" opacity="0.08933333333333333" fill="#ddd"></rect><rect x="427" y="0" width="12" height="100%" opacity="0.08066666666666666" fill="#222"></rect><rect x="453" y="0" width="8" height="100%" opacity="0.046" fill="#222"></rect></svg>